<svg width="50" height="50" viewBox="0 0 50 50" fill="none" xmlns="http://www.w3.org/2000/svg">
<path fill-rule="evenodd" clip-rule="evenodd" d="M25 7C23.8954 7 23 7.89543 23 9V15H18C16.8954 15 16 15.8954 16 17V22H4C2.89543 22 2 22.8954 2 24C2 25.1046 2.89543 26 4 26H16V31C16 32.1046 16.8954 33 18 33H32C33.1046 33 34 32.1046 34 31V26H46C47.1046 26 48 25.1046 48 24C48 22.8954 47.1046 22 46 22H34V17C34 15.8954 33.1046 15 32 15H27V9C27 7.89543 26.1046 7 25 7ZM29 24C29 26.2091 27.2091 28 25 28C22.7909 28 21 26.2091 21 24C21 21.7909 22.7909 20 25 20C27.2091 20 29 21.7909 29 24Z" fill="white"/>
</svg>
