<svg width="50" height="50" viewBox="0 0 50 50" fill="none" xmlns="http://www.w3.org/2000/svg">
<path fill-rule="evenodd" clip-rule="evenodd" d="M16.1941 10C15.0815 10 14.0603 10.6157 13.541 11.5996L8.43239 21.2778H3.78249C2.22088 21.2778 1.26171 22.9875 2.07564 24.3202L11.6777 40.0424C12.041 40.6372 12.6876 41 13.3846 41H36.6155C37.3124 41 37.9591 40.6372 38.3223 40.0424L47.9244 24.3202C48.7383 22.9875 47.7791 21.2778 46.2175 21.2778H19.2832L23.32 12.8653C23.9571 11.5376 22.9895 10 21.5169 10H16.1941ZM15.3097 12.5332C15.4828 12.2052 15.8232 12 16.1941 12H21.5169L16.7926 21.8451L16.1051 23.2778H17.6941H46.2175L36.6155 39H13.3846L3.78249 23.2778H9.03531H9.63822L9.91967 22.7446L15.3097 12.5332ZM20.845 34.64C20.635 34.69 20.365 34.715 20.035 34.715C19.375 34.715 18.815 34.65 18.355 34.52C17.905 34.38 17.525 34.225 17.215 34.055L16.555 35.915C16.695 35.995 16.865 36.08 17.065 36.17C17.275 36.26 17.52 36.345 17.8 36.425C18.09 36.505 18.42 36.57 18.79 36.62C19.16 36.68 19.575 36.71 20.035 36.71C21.405 36.71 22.43 36.445 23.11 35.915C23.79 35.375 24.13 34.62 24.13 33.65C24.13 33.15 24.065 32.725 23.935 32.375C23.805 32.025 23.605 31.72 23.335 31.46C23.075 31.2 22.745 30.975 22.345 30.785C21.945 30.585 21.475 30.385 20.935 30.185C20.675 30.095 20.435 30.01 20.215 29.93C20.005 29.84 19.815 29.745 19.645 29.645C19.485 29.535 19.36 29.415 19.27 29.285C19.18 29.155 19.135 28.995 19.135 28.805C19.135 28.485 19.255 28.25 19.495 28.1C19.745 27.94 20.15 27.86 20.71 27.86C21.21 27.86 21.635 27.92 21.985 28.04C22.345 28.15 22.67 28.28 22.96 28.43L23.635 26.585C23.305 26.405 22.885 26.24 22.375 26.09C21.865 25.94 21.26 25.865 20.56 25.865C19.97 25.865 19.44 25.94 18.97 26.09C18.5 26.23 18.1 26.435 17.77 26.705C17.44 26.975 17.185 27.305 17.005 27.695C16.825 28.075 16.735 28.505 16.735 28.985C16.735 29.465 16.82 29.875 16.99 30.215C17.16 30.545 17.38 30.83 17.65 31.07C17.92 31.3 18.225 31.495 18.565 31.655C18.905 31.805 19.245 31.94 19.585 32.06C20.365 32.32 20.915 32.565 21.235 32.795C21.555 33.015 21.715 33.295 21.715 33.635C21.715 33.795 21.69 33.94 21.64 34.07C21.59 34.2 21.5 34.315 21.37 34.415C21.24 34.505 21.065 34.58 20.845 34.64ZM32.6205 26.81C31.7905 26.26 30.6005 25.985 29.0505 25.985C28.6205 25.985 28.1205 26.005 27.5505 26.045C26.9805 26.085 26.4405 26.155 25.9305 26.255V36.5H28.2705V33.02H29.0055C30.5655 33.02 31.7655 32.745 32.6055 32.195C33.4455 31.635 33.8655 30.73 33.8655 29.48C33.8655 28.24 33.4505 27.35 32.6205 26.81ZM28.6905 27.995C28.8605 27.985 29.0305 27.98 29.2005 27.98C29.5405 27.98 29.8505 28.005 30.1305 28.055C30.4105 28.095 30.6455 28.175 30.8355 28.295C31.0355 28.405 31.1855 28.555 31.2855 28.745C31.3955 28.935 31.4505 29.175 31.4505 29.465C31.4505 30.065 31.2455 30.475 30.8355 30.695C30.4255 30.915 29.8155 31.025 29.0055 31.025H28.2705V28.025C28.3905 28.015 28.5305 28.005 28.6905 27.995Z" fill="white"/>
</svg>
