<svg width="50" height="50" viewBox="0 0 50 50" fill="none" xmlns="http://www.w3.org/2000/svg">
<path d="M35.925 20.9524V20.9524C35.4086 20.9524 34.9899 20.5337 34.9899 20.0173V11C34.9899 10.4477 34.5422 10 33.9899 10H15.5455C14.9932 10 14.5455 10.4477 14.5455 11V19.9524C14.5455 20.5047 14.0977 20.9524 13.5455 20.9524H3.81842C3.03001 20.9524 2.55167 21.8222 2.97394 22.488L13.7863 39.5356C13.9697 39.8248 14.2883 40 14.6307 40H24.425M35.925 20.9524L24.425 40M35.925 20.9524H40.525M24.425 40H29.025M40.525 20.9524H46.2189C46.9994 20.9524 47.479 21.8067 47.0726 22.473L36.6762 39.5207C36.4946 39.8184 36.1711 40 35.8224 40H29.025M40.525 20.9524L29.025 40" stroke="white" stroke-width="2"/>
</svg>
