<svg width="50" height="50" viewBox="0 0 50 50" fill="none" xmlns="http://www.w3.org/2000/svg">
<path fill-rule="evenodd" clip-rule="evenodd" d="M15.7039 9C14.505 9 13.533 9.98806 13.533 11.2069V19.8768H4.17442C2.4565 19.8768 1.41925 21.8092 2.34881 23.2779L12.9247 39.9873C13.3242 40.6185 14.0119 41 14.7503 41H35.6566C36.4086 41 37.107 40.6043 37.5027 39.9542L47.6718 23.2449C48.5666 21.7746 47.5263 19.8768 45.8257 19.8768H35.9654V11.2069C35.9654 9.98806 34.9935 9 33.7945 9H15.7039ZM15.7039 11.2069H33.7945V19.8768C33.7945 21.0957 34.7664 22.0837 35.9654 22.0837H45.8257L46.7487 22.6643L45.8257 22.0837L35.6566 38.7931H14.7503L4.17442 22.0837H13.533C14.732 22.0837 15.7039 21.0957 15.7039 19.8768V11.2069ZM18.0056 25.3696C17.7559 24.8289 17.5334 24.3765 17.338 24.0124H14.9121C14.8035 24.7738 14.7004 25.6289 14.6027 26.5779C14.5159 27.5158 14.4345 28.4979 14.3585 29.5241C14.2934 30.5393 14.2282 31.56 14.1631 32.5862C14.1088 33.6124 14.06 34.5779 14.0166 35.4827H16.4914C16.5239 34.3683 16.5674 33.1545 16.6216 31.8414C16.6759 30.5283 16.7573 29.2041 16.8659 27.8689C17.0612 28.3324 17.2783 28.8455 17.5171 29.4083C17.7559 29.971 17.9893 30.5338 18.2172 31.0965C18.456 31.6593 18.684 32.2 18.901 32.7186C19.1181 33.2262 19.3027 33.662 19.4546 34.0262H21.2293C21.3813 33.662 21.5658 33.2262 21.7829 32.7186C22 32.2 22.2225 31.6593 22.4504 31.0965L23.1668 29.4083C23.4056 28.8455 23.6227 28.3324 23.8181 27.8689C23.9266 29.2041 24.008 30.5283 24.0623 31.8414C24.1166 33.1545 24.16 34.3683 24.1925 35.4827H26.6673C26.6239 34.5779 26.5697 33.6124 26.5045 32.5862C26.4503 31.56 26.3851 30.5393 26.3091 29.5241C26.244 28.4979 26.1626 27.5158 26.0649 26.5779C25.9781 25.6289 25.8804 24.7738 25.7719 24.0124H23.4599C23.2645 24.3765 23.0366 24.8289 22.7761 25.3696C22.5264 25.8993 22.2605 26.4786 21.9783 27.1076C21.7069 27.7255 21.4355 28.36 21.1642 29.011C20.8928 29.662 20.6377 30.2745 20.3989 30.8483C20.1601 30.2745 19.9051 29.662 19.6337 29.011C19.3624 28.36 19.0856 27.7255 18.8034 27.1076C18.532 26.4786 18.2661 25.8993 18.0056 25.3696ZM28.2216 24.0124V35.4827H36.2158V33.3145H30.7615V30.5503H35.2715V28.4317H30.7615V26.1807H35.8413V24.0124H28.2216Z" fill="white"/>
</svg>
