<svg width="50" height="50" viewBox="0 0 50 50" fill="none" xmlns="http://www.w3.org/2000/svg">
<path fill-rule="evenodd" clip-rule="evenodd" d="M18.2414 3H31.7196C32.4427 3 33.0288 3.58663 33.0288 4.31028V12.8966C33.0288 13.6203 33.615 14.2069 34.338 14.2069H40.6891C41.667 14.2069 42.2997 15.2409 41.8553 16.1127L26.4738 46.2852C25.9924 47.2297 24.6478 47.2405 24.1512 46.3039L8.15452 16.1314C7.69184 15.2587 8.32388 14.2069 9.31099 14.2069H15.623C16.346 14.2069 16.9322 13.6203 16.9322 12.8966V4.31028C16.9322 3.58663 17.5183 3 18.2414 3ZM24.9805 33.1186C28.0727 33.1186 30.5793 30.6099 30.5793 27.5152C30.5793 24.4204 28.0727 21.9117 24.9805 21.9117C21.8884 21.9117 19.3817 24.4204 19.3817 27.5152C19.3817 30.6099 21.8884 33.1186 24.9805 33.1186Z" fill="white"/>
</svg>
