<svg width="50" height="50" viewBox="0 0 50 50" fill="none" xmlns="http://www.w3.org/2000/svg">
<path d="M14.731 33.6708C14.5562 33.1065 14.3575 32.5265 14.135 31.9308C13.9284 31.3352 13.7218 30.7395 13.5151 30.1438H7.0781C6.87148 30.7395 6.65691 31.3352 6.4344 31.9308C6.22778 32.5265 6.03705 33.1065 5.86222 33.6708H2C2.61986 31.9152 3.20794 30.2928 3.76422 28.8036C4.32051 27.3144 4.8609 25.9115 5.3854 24.5947C5.92579 23.278 6.45029 22.0318 6.9589 20.8562C7.4834 19.6648 8.02379 18.5048 8.58008 17.3762H12.1324C12.6728 18.5048 13.2052 19.6648 13.7297 20.8562C14.2542 22.0318 14.7787 23.278 15.3032 24.5947C15.8436 25.9115 16.3919 27.3144 16.9482 28.8036C17.5045 30.2928 18.0926 31.9152 18.7124 33.6708H14.731ZM10.2728 21.0678C10.1933 21.3029 10.0741 21.6243 9.91516 22.0318C9.75622 22.4394 9.57344 22.9096 9.36682 23.4426C9.1602 23.9756 8.92974 24.5634 8.67544 25.2061C8.43703 25.8488 8.19067 26.5228 7.93637 27.2282H12.633C12.3787 26.5228 12.1324 25.8488 11.894 25.2061C11.6555 24.5634 11.4251 23.9756 11.2026 23.4426C10.9959 22.9096 10.8132 22.4394 10.6542 22.0318C10.4953 21.6243 10.3681 21.3029 10.2728 21.0678Z" fill="white"/>
<path d="M28.3039 20.1978C26.5715 20.1978 25.3159 20.6759 24.5371 21.6321C23.7741 22.5726 23.3927 23.8658 23.3927 25.5118C23.3927 26.3112 23.4881 27.0401 23.6788 27.6985C23.8695 28.3412 24.1556 28.8976 24.5371 29.3679C24.9185 29.8382 25.3953 30.2065 25.9675 30.473C26.5397 30.7238 27.2072 30.8492 27.9701 30.8492C28.3834 30.8492 28.733 30.8414 29.0191 30.8257C29.3211 30.81 29.5834 30.7787 29.8059 30.7317V25.065H33.5251V33.13C33.08 33.3024 32.3648 33.4827 31.3794 33.6708C30.394 33.8746 29.1781 33.9765 27.7317 33.9765C26.492 33.9765 25.3635 33.7884 24.3463 33.4122C23.345 33.036 22.4867 32.4873 21.7715 31.7663C21.0563 31.0452 20.5 30.1595 20.1027 29.1093C19.7212 28.059 19.5305 26.8598 19.5305 25.5118C19.5305 24.148 19.745 22.941 20.1742 21.8907C20.6033 20.8405 21.1914 19.9548 21.9384 19.2337C22.6854 18.497 23.5596 17.9405 24.5609 17.5643C25.5781 17.1881 26.6589 17 27.8033 17C28.5821 17 29.2814 17.0549 29.9012 17.1646C30.537 17.2586 31.0774 17.3762 31.5224 17.5173C31.9834 17.6427 32.3569 17.7759 32.6429 17.917C32.9449 18.0581 33.1595 18.1678 33.2866 18.2462L32.2138 21.1853C31.7052 20.9189 31.1171 20.6916 30.4496 20.5035C29.7979 20.2997 29.0827 20.1978 28.3039 20.1978Z" fill="white"/>
<path d="M41.4914 30.8728C42.0159 30.8728 42.4451 30.8336 42.7788 30.7552C43.1285 30.6611 43.4067 30.5436 43.6133 30.4025C43.8199 30.2457 43.9629 30.0655 44.0424 29.8617C44.1219 29.6579 44.1616 29.4306 44.1616 29.1798C44.1616 28.6468 43.9073 28.2079 43.3987 27.8631C42.8901 27.5025 42.0159 27.1185 40.7762 26.7109C40.2358 26.5228 39.6954 26.3112 39.155 26.0761C38.6146 25.8253 38.1299 25.5196 37.7007 25.1591C37.2716 24.7828 36.9219 24.3361 36.6517 23.8188C36.3816 23.2858 36.2465 22.6432 36.2465 21.8907C36.2465 21.1383 36.3895 20.4643 36.6756 19.8686C36.9617 19.2573 37.367 18.74 37.8915 18.3167C38.416 17.8935 39.0517 17.5722 39.7987 17.3527C40.5458 17.1176 41.3881 17 42.3259 17C43.4384 17 44.4 17.1176 45.2106 17.3527C46.0212 17.5878 46.6888 17.8465 47.2132 18.1286L46.1404 21.0207C45.6795 20.7856 45.1629 20.5818 44.5908 20.4094C44.0345 20.2213 43.359 20.1272 42.5643 20.1272C41.6742 20.1272 41.0305 20.2527 40.6332 20.5035C40.2517 20.7386 40.061 21.107 40.061 21.6086C40.061 21.9064 40.1325 22.1572 40.2756 22.361C40.4186 22.5648 40.6173 22.7529 40.8716 22.9253C41.1418 23.0821 41.4438 23.231 41.7775 23.3721C42.1272 23.4975 42.5087 23.6307 42.9219 23.7718C43.7802 24.0853 44.5272 24.3988 45.1629 24.7123C45.7987 25.0101 46.3232 25.3628 46.7364 25.7704C47.1656 26.178 47.4834 26.6561 47.6901 27.2047C47.8967 27.7533 48 28.4195 48 29.2033C48 30.7238 47.4596 31.9073 46.3788 32.7538C45.298 33.5846 43.6689 34 41.4914 34C40.7603 34 40.1007 33.953 39.5127 33.8589C38.9246 33.7805 38.4001 33.6787 37.9392 33.5532C37.4941 33.4278 37.1047 33.2946 36.771 33.1535C36.4531 33.0124 36.1829 32.8792 35.9604 32.7538L37.0094 29.8382C37.5021 30.1047 38.106 30.3476 38.8213 30.5671C39.5524 30.7709 40.4424 30.8728 41.4914 30.8728Z" fill="white"/>
</svg>
