<svg width="50" height="50" viewBox="0 0 50 50" fill="none" xmlns="http://www.w3.org/2000/svg">
<path fill-rule="evenodd" clip-rule="evenodd" d="M23 8C23 6.89543 23.8954 6 25 6C26.1046 6 27 6.89543 27 8V14C27 14.0668 26.9967 14.1329 26.9903 14.1981C31.2413 15.0566 34.5151 18.6111 34.9507 23.0006C34.9671 23.0002 34.9835 23 35 23H47C48.1046 23 49 23.8954 49 25C49 26.1045 48.1046 27 47 27H35C34.8479 27 34.6998 26.983 34.5575 26.9508C33.2985 31.0333 29.4957 34 25 34C20.5043 34 16.7015 31.0333 15.4425 26.9508C15.3002 26.983 15.1521 27 15 27H3C1.89543 27 1 26.1045 1 25C1 23.8954 1.89543 23 3 23H15C15.0165 23 15.0329 23.0002 15.0493 23.0006C15.4849 18.6111 18.7587 15.0566 23.0097 14.1981C23.0033 14.1329 23 14.0668 23 14V8ZM25 28.5C27.4853 28.5 29.5 26.4853 29.5 24C29.5 21.5147 27.4853 19.5 25 19.5C22.5147 19.5 20.5 21.5147 20.5 24C20.5 26.4853 22.5147 28.5 25 28.5Z" fill="white"/>
</svg>
