<svg width="50" height="50" viewBox="0 0 50 50" fill="none" xmlns="http://www.w3.org/2000/svg">
<path fill-rule="evenodd" clip-rule="evenodd" d="M15.7039 9C14.505 9 13.533 9.98806 13.533 11.2069V19.8768H4.17442C2.4565 19.8768 1.41925 21.8092 2.34881 23.2779L12.9247 39.9873C13.3242 40.6185 14.0119 41 14.7503 41H35.6566C36.4086 41 37.107 40.6043 37.5027 39.9542L47.6718 23.2449C48.5666 21.7746 47.5263 19.8768 45.8257 19.8768H35.9654V11.2069C35.9654 9.98806 34.9935 9 33.7945 9H15.7039ZM15.7039 11.2069H33.7945V19.8768C33.7945 21.0957 34.7664 22.0837 35.9654 22.0837H45.8257L46.7487 22.6643L45.8257 22.0837L35.6566 38.7931H14.7503L4.17442 22.0837H13.533C14.732 22.0837 15.7039 21.0957 15.7039 19.8768V11.2069ZM29.2865 22.6518C28.2054 21.9235 26.6554 21.5594 24.6365 21.5594C24.0764 21.5594 23.4251 21.5859 22.6827 21.6389C21.9402 21.6918 21.2369 21.7845 20.5726 21.9169V35.4827H23.6205V30.8747H24.5778C26.6098 30.8747 28.1728 30.5106 29.2669 29.7823C30.3611 29.0408 30.9081 27.8424 30.9081 26.1873C30.9081 24.5453 30.3676 23.3669 29.2865 22.6518ZM24.1676 24.2209C24.389 24.2077 24.6104 24.2011 24.8318 24.2011C25.2747 24.2011 25.6785 24.2342 26.0432 24.3004C26.4079 24.3533 26.714 24.4593 26.9615 24.6182C27.222 24.7638 27.4173 24.9624 27.5476 25.214C27.6909 25.4656 27.7625 25.7834 27.7625 26.1674C27.7625 26.9619 27.4955 27.5048 26.9615 27.7961C26.4274 28.0874 25.6329 28.2331 24.5778 28.2331H23.6205V24.2606C23.7768 24.2474 23.9592 24.2342 24.1676 24.2209Z" fill="white"/>
</svg>
