<svg width="50" height="50" viewBox="0 0 50 50" fill="none" xmlns="http://www.w3.org/2000/svg">
<path d="M13.5462 32.7095C13.3876 32.2116 13.2074 31.6999 13.0056 31.1743C12.8182 30.6487 12.6308 30.1231 12.4434 29.5975H6.60549C6.4181 30.1231 6.2235 30.6487 6.0217 31.1743C5.8343 31.6999 5.66133 32.2116 5.50277 32.7095H2C2.56217 31.1604 3.09552 29.7289 3.60003 28.4149C4.10454 27.101 4.59464 25.8631 5.07033 24.7012C5.56043 23.5394 6.03611 22.4398 6.49738 21.4025C6.97306 20.3513 7.46316 19.3278 7.96768 18.332H11.1894C11.6795 19.3278 12.1623 20.3513 12.638 21.4025C13.1137 22.4398 13.5894 23.5394 14.0651 24.7012C14.5552 25.8631 15.0525 27.101 15.557 28.4149C16.0615 29.7289 16.5949 31.1604 17.157 32.7095H13.5462ZM9.50284 21.5892C9.43077 21.7967 9.32266 22.0802 9.17851 22.4398C9.03436 22.7994 8.86859 23.2144 8.6812 23.6846C8.49381 24.1549 8.2848 24.6736 8.05417 25.2407C7.83794 25.8077 7.61452 26.4025 7.38388 27.0249H11.6434C11.4128 26.4025 11.1894 25.8077 10.9731 25.2407C10.7569 24.6736 10.5479 24.1549 10.3461 23.6846C10.1587 23.2144 9.99294 22.7994 9.84879 22.4398C9.70465 22.0802 9.58933 21.7967 9.50284 21.5892Z" fill="white"/>
<path d="M25.8558 20.8216C24.2846 20.8216 23.1459 21.2434 22.4396 22.0871C21.7477 22.917 21.4017 24.0581 21.4017 25.5104C21.4017 26.2158 21.4882 26.8589 21.6612 27.4398C21.8341 28.0069 22.0936 28.4979 22.4396 28.9129C22.7855 29.3278 23.218 29.6528 23.7369 29.888C24.2558 30.1093 24.8612 30.2199 25.5531 30.2199C25.9279 30.2199 26.245 30.213 26.5045 30.1992C26.7784 30.1853 27.0162 30.1577 27.218 30.1162V25.1162H30.5911V32.2324C30.1875 32.3845 29.5388 32.5436 28.6451 32.7095C27.7514 32.8893 26.6486 32.9793 25.3369 32.9793C24.2126 32.9793 23.1891 32.8133 22.2666 32.4813C21.3585 32.1494 20.5801 31.6653 19.9314 31.029C19.2827 30.3928 18.7782 29.6113 18.4179 28.6846C18.0719 27.758 17.8989 26.6999 17.8989 25.5104C17.8989 24.3071 18.0935 23.242 18.4827 22.3154C18.8719 21.3887 19.4053 20.6072 20.0828 19.971C20.7603 19.3209 21.5531 18.8299 22.4612 18.4979C23.3837 18.166 24.3639 18 25.4018 18C26.1081 18 26.7423 18.0484 27.3045 18.1452C27.8811 18.2282 28.3712 18.332 28.7748 18.4564C29.1928 18.5671 29.5316 18.6846 29.791 18.8091C30.0649 18.9336 30.2595 19.0304 30.3748 19.0996L29.4019 21.6929C28.9406 21.4578 28.4072 21.2573 27.8018 21.0913C27.2108 20.9115 26.5622 20.8216 25.8558 20.8216Z" fill="white"/>
<path d="M36.5619 25.5104C36.5619 26.2158 36.6484 26.852 36.8214 27.4191C37.0088 27.9862 37.2683 28.4772 37.5998 28.8921C37.9458 29.2932 38.3638 29.6044 38.8539 29.8257C39.344 30.047 39.9062 30.1577 40.5404 30.1577C41.1602 30.1577 41.7152 30.047 42.2053 29.8257C42.7098 29.6044 43.1278 29.2932 43.4594 28.8921C43.8053 28.4772 44.0648 27.9862 44.2378 27.4191C44.4252 26.852 44.5189 26.2158 44.5189 25.5104C44.5189 24.805 44.4252 24.1687 44.2378 23.6017C44.0648 23.0207 43.8053 22.5297 43.4594 22.1286C43.1278 21.7137 42.7098 21.3956 42.2053 21.1743C41.7152 20.953 41.1602 20.8423 40.5404 20.8423C39.9062 20.8423 39.344 20.9599 38.8539 21.195C38.3638 21.4163 37.9458 21.7344 37.5998 22.1494C37.2683 22.5505 37.0088 23.0415 36.8214 23.6224C36.6484 24.1895 36.5619 24.8188 36.5619 25.5104ZM48 25.5104C48 26.7414 47.8054 27.8271 47.4162 28.7676C47.0414 29.6943 46.5225 30.4758 45.8594 31.112C45.1963 31.7344 44.4035 32.2047 43.481 32.5228C42.5729 32.8409 41.5927 33 40.5404 33C39.517 33 38.5512 32.8409 37.6431 32.5228C36.7349 32.2047 35.9421 31.7344 35.2646 31.112C34.5871 30.4758 34.0538 29.6943 33.6646 28.7676C33.2754 27.8271 33.0808 26.7414 33.0808 25.5104C33.0808 24.2794 33.2826 23.2006 33.6862 22.2739C34.0898 21.3333 34.6304 20.545 35.3079 19.9087C35.9998 19.2725 36.7926 18.7953 37.6863 18.4772C38.5944 18.1591 39.5458 18 40.5404 18C41.5638 18 42.5296 18.1591 43.4378 18.4772C44.3459 18.7953 45.1387 19.2725 45.8162 19.9087C46.4937 20.545 47.027 21.3333 47.4162 22.2739C47.8054 23.2006 48 24.2794 48 25.5104Z" fill="white"/>
</svg>
