<svg width="50" height="50" viewBox="0 0 50 50" fill="none" xmlns="http://www.w3.org/2000/svg">
<path fill-rule="evenodd" clip-rule="evenodd" d="M24.3463 5.3491C24.3463 5.1563 24.5011 5 24.6919 5H26.9583C27.0132 5 27.0651 5.01292 27.1112 5.0359C27.5682 4.98525 28.052 5.11713 28.4499 5.48193L44.1277 19.8551C45.2979 20.9278 44.5465 22.8931 42.9663 22.8931H27.8645C27.6711 22.8931 27.4834 22.8691 27.3039 22.8238V25.3457H29.0785H44.692C46.524 25.3457 47.6233 27.4007 46.6194 28.9485L36.8901 43.9481C36.4643 44.6045 35.7397 45 34.9627 45H16.0617C15.3228 45 14.6288 44.6421 14.1954 44.0377L3.44202 29.038C2.33881 27.4992 3.42726 25.3457 5.30824 25.3457H24.3463V5.3491ZM24.9379 27.673H5.30824L16.0617 42.6726H34.9627L44.692 27.673H29.0785H24.9379ZM27.8645 20.5658V8.08831L41.4746 20.5658L27.8645 20.5658Z" fill="white"/>
</svg>
